# xmcd
#
# Track frame offsets: 
#        150
#        20445
#        39271
#        59573
#
# Disc length: 1043 seconds
#
# Revision: 2
# Processed by: cddbd v1.5.2PL0 Copyright (c) Steve Scherf et al.
# Submitted via: ExactAudioCopy v1.0b3
#
DISCID=2b041104
DTITLE=COACH☆ - Start Line (Single Maxi)
DYEAR=1993
DGENRE=J-Pop
TTITLE0=Start Line
TTITLE1=Blue Field
TTITLE2=Start Line (off vocal version)
TTITLE3=Blue Field (off vocal version)
EXTD=YEAR: 1993
EXTT0=
EXTT1=
EXTT2=
EXTT3=
PLAYORDER=
